<mxfile host="app.diagrams.net" agent="Mozilla/5.0 (Windows NT 10.0; Win64; x64) AppleWebKit/537.36 (KHTML, like Gecko) Chrome/140.0.0.0 Safari/537.36" version="28.2.5">
  <diagram name="Page-1" id="zjiTlDOq1797MtL9snhQ">
    <mxGraphModel dx="868" dy="439" grid="1" gridSize="10" guides="1" tooltips="1" connect="1" arrows="1" fold="1" page="1" pageScale="1" pageWidth="827" pageHeight="1169" math="0" shadow="0">
      <root>
        <mxCell id="0" />
        <mxCell id="1" parent="0" />
        <mxCell id="yuTT6s69IrJjJOpwoa5g-1" value="Use Case Diagram" style="shape=umlFrame;whiteSpace=wrap;html=1;pointerEvents=0;width=120;height=20;" vertex="1" parent="1">
          <mxGeometry x="219" y="110" width="390" height="390" as="geometry" />
        </mxCell>
        <mxCell id="yuTT6s69IrJjJOpwoa5g-2" value="" style="whiteSpace=wrap;html=1;" vertex="1" parent="1">
          <mxGeometry x="311" y="140" width="160" height="340" as="geometry" />
        </mxCell>
        <mxCell id="yuTT6s69IrJjJOpwoa5g-3" style="rounded=0;orthogonalLoop=1;jettySize=auto;html=1;entryX=0;entryY=0.5;entryDx=0;entryDy=0;endArrow=none;endFill=0;" edge="1" parent="1" source="yuTT6s69IrJjJOpwoa5g-10" target="yuTT6s69IrJjJOpwoa5g-11">
          <mxGeometry relative="1" as="geometry" />
        </mxCell>
        <mxCell id="yuTT6s69IrJjJOpwoa5g-4" style="rounded=0;orthogonalLoop=1;jettySize=auto;html=1;entryX=0;entryY=0.5;entryDx=0;entryDy=0;endArrow=none;endFill=0;" edge="1" parent="1" source="yuTT6s69IrJjJOpwoa5g-10" target="yuTT6s69IrJjJOpwoa5g-12">
          <mxGeometry relative="1" as="geometry" />
        </mxCell>
        <mxCell id="yuTT6s69IrJjJOpwoa5g-5" style="rounded=0;orthogonalLoop=1;jettySize=auto;html=1;entryX=0;entryY=0.5;entryDx=0;entryDy=0;endArrow=none;endFill=0;" edge="1" parent="1" source="yuTT6s69IrJjJOpwoa5g-10" target="yuTT6s69IrJjJOpwoa5g-13">
          <mxGeometry relative="1" as="geometry" />
        </mxCell>
        <mxCell id="yuTT6s69IrJjJOpwoa5g-10" value="Pengguna" style="shape=umlActor;verticalLabelPosition=bottom;verticalAlign=top;html=1;outlineConnect=0;" vertex="1" parent="1">
          <mxGeometry x="239" y="190" width="30" height="60" as="geometry" />
        </mxCell>
        <mxCell id="yuTT6s69IrJjJOpwoa5g-11" value="Mengakses Chatbot" style="ellipse;whiteSpace=wrap;html=1;" vertex="1" parent="1">
          <mxGeometry x="351" y="150" width="80" height="40" as="geometry" />
        </mxCell>
        <mxCell id="yuTT6s69IrJjJOpwoa5g-12" value="Menginput Pertanyaan" style="ellipse;whiteSpace=wrap;html=1;" vertex="1" parent="1">
          <mxGeometry x="351" y="200" width="80" height="40" as="geometry" />
        </mxCell>
        <mxCell id="yuTT6s69IrJjJOpwoa5g-13" value="Menerima Jawaban" style="ellipse;whiteSpace=wrap;html=1;" vertex="1" parent="1">
          <mxGeometry x="351" y="250" width="80" height="40" as="geometry" />
        </mxCell>
        <mxCell id="yuTT6s69IrJjJOpwoa5g-14" value="Menampilkan Halaman Chatbot" style="ellipse;whiteSpace=wrap;html=1;" vertex="1" parent="1">
          <mxGeometry x="346.5" y="300" width="89" height="60" as="geometry" />
        </mxCell>
        <mxCell id="yuTT6s69IrJjJOpwoa5g-16" value="Mengolah Pertanyaan" style="ellipse;whiteSpace=wrap;html=1;" vertex="1" parent="1">
          <mxGeometry x="351" y="370" width="80" height="40" as="geometry" />
        </mxCell>
        <mxCell id="yuTT6s69IrJjJOpwoa5g-17" value="Memberikan Jawaban" style="ellipse;whiteSpace=wrap;html=1;" vertex="1" parent="1">
          <mxGeometry x="351" y="420" width="80" height="40" as="geometry" />
        </mxCell>
        <mxCell id="yuTT6s69IrJjJOpwoa5g-19" style="rounded=0;orthogonalLoop=1;jettySize=auto;html=1;entryX=1;entryY=0.5;entryDx=0;entryDy=0;startArrow=none;startFill=0;endArrow=none;endFill=0;" edge="1" parent="1" source="yuTT6s69IrJjJOpwoa5g-23" target="yuTT6s69IrJjJOpwoa5g-17">
          <mxGeometry relative="1" as="geometry" />
        </mxCell>
        <mxCell id="yuTT6s69IrJjJOpwoa5g-31" style="rounded=0;orthogonalLoop=1;jettySize=auto;html=1;entryX=1;entryY=0.5;entryDx=0;entryDy=0;endArrow=none;endFill=0;" edge="1" parent="1" source="yuTT6s69IrJjJOpwoa5g-23" target="yuTT6s69IrJjJOpwoa5g-16">
          <mxGeometry relative="1" as="geometry" />
        </mxCell>
        <mxCell id="yuTT6s69IrJjJOpwoa5g-32" style="rounded=0;orthogonalLoop=1;jettySize=auto;html=1;entryX=1;entryY=0.5;entryDx=0;entryDy=0;endArrow=none;endFill=0;" edge="1" parent="1" source="yuTT6s69IrJjJOpwoa5g-23" target="yuTT6s69IrJjJOpwoa5g-14">
          <mxGeometry relative="1" as="geometry" />
        </mxCell>
        <mxCell id="yuTT6s69IrJjJOpwoa5g-23" value="Chatbot" style="shape=umlActor;verticalLabelPosition=bottom;verticalAlign=top;html=1;outlineConnect=0;" vertex="1" parent="1">
          <mxGeometry x="549" y="360" width="30" height="60" as="geometry" />
        </mxCell>
      </root>
    </mxGraphModel>
  </diagram>
</mxfile>
